# xmcd
#
# Track frame offsets: 
#        150
#        15631
#        36488
#        52620
#        67484
#        86168
#        97125
#        119855
#        134263
#        147095
#        166078
#        183783
#
# Disc length: 2684 seconds
#
# Revision: 0
# Processed by: cddbd v1.5.2PL0 Copyright (c) Steve Scherf et al.
# Submitted via: ExactAudioCopy v1.3
#
DISCID=ac0a7a0c
DTITLE=Easy West - Moments in Time
DYEAR=2013
DGENRE=Country
TTITLE0=She Ain't Hooked On Me No More
TTITLE1=Seminole Wind
TTITLE2=Dreams Of Yesterday
TTITLE3=Hard To Come Close To
TTITLE4=You Made My Life
TTITLE5=Mama Tried
TTITLE6=Til I Gain Control Again
TTITLE7=Highway
TTITLE8=Straight Tequila Night
TTITLE9=Four Song Winds
TTITLE10=I Don't Live To Work
TTITLE11=So Glad I Found You
EXTD=
EXTT0=
EXTT1=
EXTT2=
EXTT3=
EXTT4=
EXTT5=
EXTT6=
EXTT7=
EXTT8=
EXTT9=
EXTT10=
EXTT11=
PLAYORDER=
